<mxfile host="app.diagrams.net" modified="2023-04-27T16:59:16.043Z" agent="Mozilla/5.0 (Windows NT 10.0; Win64; x64) AppleWebKit/537.36 (KHTML, like Gecko) Chrome/112.0.0.0 Safari/537.36" version="21.2.1" etag="z6Li8rfpLtuswKVYdLF5" type="github">
  <diagram name="PÃ¡gina-1" id="u2pbW-Y-D0Sw8uoeawSN">
    <mxGraphModel>
      <root>
        <mxCell id="0" />
        <mxCell id="1" parent="0" />
      </root>
    </mxGraphModel>
  </diagram>
</mxfile>
